<?xml version="1.0" encoding="utf-8"?>
<!-- Generator: Adobe Illustrator 16.0.0, SVG Export Plug-In . SVG Version: 6.00 Build 0)  -->
<!DOCTYPE svg PUBLIC "-//W3C//DTD SVG 1.1//EN" "http://www.w3.org/Graphics/SVG/1.1/DTD/svg11.dtd">
<svg version="1.1" id="图层_1" xmlns="http://www.w3.org/2000/svg" xmlns:xlink="http://www.w3.org/1999/xlink" x="0px" y="0px"
	 width="120px" height="120px" viewBox="0 0 120 120" enable-background="new 0 0 120 120" xml:space="preserve">
<path fill="#78C4E6" d="M120,115c0,2.762-2.238,5-5,5H5c-2.761,0-5-2.238-5-5V5c0-2.761,2.239-5,5-5h110c2.762,0,5,2.239,5,5V115z"
	/>
<path fill="#F4F4F4" d="M27.375,103.813c0,1.691-1.371,3.063-3.063,3.063l0,0c-1.691,0-3.063-1.371-3.063-3.063v-82
	c0-1.691,1.371-3.063,3.063-3.063l0,0c1.691,0,3.063,1.371,3.063,3.063V103.813z"/>
<path fill="#FFFFFF" d="M36.102,18.548c0,0,13.021-12.743,30.023-2.621c0,0,32.35,5.447,35.773-6.371c0,0,3.449,42.543-6.707,46.826
	c0,0-5.625,13.661-2.598,17.473c0,0-19.189,8.602-32.95,2.637c0,0-13.351,1.844-15.326,7.49c0,0-6.911,4.838-8.161,1.76
	C36.156,85.742,35.131,24.144,36.102,18.548z"/>
</svg>
