<?xml version="1.0" encoding="utf-8"?>
<!-- Generator: Adobe Illustrator 16.0.0, SVG Export Plug-In . SVG Version: 6.00 Build 0)  -->
<!DOCTYPE svg PUBLIC "-//W3C//DTD SVG 1.1//EN" "http://www.w3.org/Graphics/SVG/1.1/DTD/svg11.dtd">
<svg version="1.1" id="图层_1" xmlns="http://www.w3.org/2000/svg" xmlns:xlink="http://www.w3.org/1999/xlink" x="0px" y="0px"
	 width="120px" height="120px" viewBox="0 0 120 120" enable-background="new 0 0 120 120" xml:space="preserve">
<path fill="#78C4E6" d="M120,115c0,2.762-2.238,5-5,5H5c-2.761,0-5-2.238-5-5V5c0-2.761,2.239-5,5-5h110c2.762,0,5,2.239,5,5V115z"
	/>
<path fill="#FFFFFF" d="M55.833,47.333c0,2.761-2.239,5-5,5H38.667c-2.761,0-5-2.239-5-5V33.5c0-2.761,2.239-5,5-5h12.167
	c2.761,0,5,2.239,5,5V47.333z"/>
<path fill="#FFFFFF" d="M90.666,48.333c0,2.761-2.238,5-5,5H73.5c-2.762,0-5-2.239-5-5V34.5c0-2.761,2.238-5,5-5h12.166
	c2.762,0,5,2.239,5,5V48.333z"/>
<path fill="#FFFFFF" d="M55.833,85.5c0,2.761-2.239,5-5,5H38.667c-2.761,0-5-2.239-5-5V71.667c0-2.762,2.239-5.001,5-5.001h12.167
	c2.761,0,5,2.239,5,5.001V85.5z"/>
<path fill="#FFFFFF" d="M90.666,86.5c0,2.761-2.238,5-5,5H73.5c-2.762,0-5-2.239-5-5V72.667c0-2.762,2.238-5.001,5-5.001h12.166
	c2.762,0,5,2.239,5,5.001V86.5z"/>
<polygon fill="none" points="60,11.198 75.232,42.066 109.299,47.016 84.648,71.043 90.469,104.973 60,88.953 29.531,104.973 
	35.35,71.043 10.7,47.016 44.765,42.066 "/>
</svg>
