<?xml version="1.0" encoding="utf-8"?>
<!-- Generator: Adobe Illustrator 16.0.0, SVG Export Plug-In . SVG Version: 6.00 Build 0)  -->
<!DOCTYPE svg PUBLIC "-//W3C//DTD SVG 1.1//EN" "http://www.w3.org/Graphics/SVG/1.1/DTD/svg11.dtd">
<svg version="1.1" id="图层_1" xmlns="http://www.w3.org/2000/svg" xmlns:xlink="http://www.w3.org/1999/xlink" x="0px" y="0px"
	 width="120px" height="120px" viewBox="0 0 120 120" enable-background="new 0 0 120 120" xml:space="preserve">
<path fill="#78C4E6" d="M120.125,115c0,2.762-2.238,5-5,5h-110c-2.761,0-5-2.238-5-5V5c0-2.761,2.239-5,5-5h110c2.762,0,5,2.239,5,5
	V115z"/>
<path fill="#FFFFFF" d="M80.228,29.438h-0.919c0,0-19.856-6.894-29.784-10.02c0,0-34.012-5.975-23.809,19.488
	c0,0-0.368,12.042,5.332,18.937c0,0,0.874,12.088,5.792,26.567c0.505,0.873-0.092,6.985-2.022,9.561
	c-1.104,2.619,1.716,13.727,1.716,13.727h1.716c0,0,0.291-16.209,3.922-2.819c0.203,0.6,0.368,3.8,7.967,0.981
	c0,0,2.697-4.535-2.329-5.884c0,0-1.104-0.734-2.329-8.334c0,0-1.471-24.023,5.883-7.231c0,0,0.827,3.125-1.471,5.883
	c0,0.552,0,8.947,0,8.947l2.125,0.49c0,0,2.392-9.314,3.627,2.574l5.892,0.245c0,0,3.8-3.31-0.98-6.006c0,0-2.114-2.16-1.96-8.09
	c0.306-1.103-3.31-16.302-5.884-18.63c0,0,28.558-37.506,26.842-24.022c0,0-0.144,2.308-0.49,6.618
	c-0.214,1.838,7.477,2.942,6.741,6.618c-0.734,3.678,4.657-0.123,5.515-4.413c0.859-4.29,2.575,1.839,2.207,3.188
	c-0.368,1.348,8.58-4.291,6.25-11.644c0,0,0.583-6.266,6.006-3.751C106.182,43.641,100.451,11.236,80.228,29.438z M44.254,74.235
	c0,0-1.226,1.472-2.574-1.961s0-9.928,0-9.928S44.377,72.765,44.254,74.235z M50.138,60.018c0,0-2.941-12.134-2.941-24.758
	c0,0,2.752,6.864,9.527,5.638c0,0-1.806,4.29,3.22,7.722C59.943,48.62,50.628,55.973,50.138,60.018z"/>
</svg>
