<?xml version="1.0" encoding="utf-8"?>
<!-- Generator: Adobe Illustrator 16.0.0, SVG Export Plug-In . SVG Version: 6.00 Build 0)  -->
<!DOCTYPE svg PUBLIC "-//W3C//DTD SVG 1.1//EN" "http://www.w3.org/Graphics/SVG/1.1/DTD/svg11.dtd">
<svg version="1.1" id="图层_1" xmlns="http://www.w3.org/2000/svg" xmlns:xlink="http://www.w3.org/1999/xlink" x="0px" y="0px"
	 width="120px" height="120px" viewBox="0 0 120 120" enable-background="new 0 0 120 120" xml:space="preserve">
<path fill="#78C4E6" d="M120,115c0,2.762-2.238,5-5,5H5c-2.761,0-5-2.238-5-5V5c0-2.761,2.239-5,5-5h110c2.762,0,5,2.239,5,5V115z"
	/>
<path display="none" fill="#FFFFFF" d="M45.833,110.167"/>
<polygon display="none" fill="#78C4E6" points="69.134,61.584 60,77.404 50.866,61.584 "/>
<circle fill="none" stroke="#FFFFFF" stroke-width="4" stroke-miterlimit="10" cx="51.603" cy="52.982" r="23.625"/>
<rect x="78.133" y="68.59" transform="matrix(-0.756 0.6545 -0.6545 -0.756 199.0431 96.8724)" fill="#FFFFFF" width="6.669" height="33.885"/>
<rect x="80.619" y="72.446" transform="matrix(-0.7561 0.6545 -0.6545 -0.7561 207.3916 101.4852)" fill="#BFBFBF" width="8.332" height="33.885"/>
<radialGradient id="SVGID_1_" cx="51.644" cy="52.9395" r="21.9998" gradientUnits="userSpaceOnUse">
	<stop  offset="0.185" style="stop-color:#FFFFFF"/>
	<stop  offset="0.98" style="stop-color:#D4D4D4"/>
</radialGradient>
<circle opacity="0.6" fill="url(#SVGID_1_)" cx="51.644" cy="52.94" r="22"/>
</svg>
