<?xml version="1.0" encoding="utf-8"?>
<!-- Generator: Adobe Illustrator 16.0.0, SVG Export Plug-In . SVG Version: 6.00 Build 0)  -->
<!DOCTYPE svg PUBLIC "-//W3C//DTD SVG 1.1//EN" "http://www.w3.org/Graphics/SVG/1.1/DTD/svg11.dtd">
<svg version="1.1" id="图层_1" xmlns="http://www.w3.org/2000/svg" xmlns:xlink="http://www.w3.org/1999/xlink" x="0px" y="0px"
	 width="120px" height="120px" viewBox="0 0 120 120" enable-background="new 0 0 120 120" xml:space="preserve">
<path fill="#78C4E6" d="M120.125,115c0,2.762-2.238,5-5,5h-110c-2.761,0-5-2.238-5-5V5c0-2.761,2.239-5,5-5h110c2.762,0,5,2.239,5,5
	V115z"/>
<path fill="#FFFFFF" d="M22.75,52.25c0,0-9.75-15.25,5.5-20.25c0,0,11.625-6.75,13.625,7.375c0,0,21.875,16.25,37.125-2
	c0,0,12.875-19.25,19.375,1.5c0,0,0.125,55.875-12.25,34.875C86.125,73.75,66,63,53,66.875c0,0-8.875,0.25-12.875,5.25
	c0,0-3.125,3.625-0.875,8.5c0,0-10.625,3.5-13.5-7.625C25.75,73,21,59.625,22.75,52.25z"/>
<circle fill="#78C4E6" cx="39.125" cy="54" r="8.375"/>
<circle fill="#B4F7FF" cx="39.125" cy="54" r="6.938"/>
<circle fill="#B4F7FF" cx="83.5" cy="47.063" r="4.188"/>
<circle fill="#B4F7FF" cx="75.125" cy="54" r="4.188"/>
<circle fill="#B4F7FF" cx="91.875" cy="54" r="4.188"/>
<circle fill="#B4F7FF" cx="83" cy="60.938" r="4.188"/>
</svg>
