<?xml version="1.0" encoding="utf-8"?>
<!-- Generator: Adobe Illustrator 16.0.0, SVG Export Plug-In . SVG Version: 6.00 Build 0)  -->
<!DOCTYPE svg PUBLIC "-//W3C//DTD SVG 1.1//EN" "http://www.w3.org/Graphics/SVG/1.1/DTD/svg11.dtd">
<svg version="1.1" id="图层_1" xmlns="http://www.w3.org/2000/svg" xmlns:xlink="http://www.w3.org/1999/xlink" x="0px" y="0px"
	 width="120px" height="120px" viewBox="0 0 120 120" enable-background="new 0 0 120 120" xml:space="preserve">
<path fill="#78C4E6" d="M120,115c0,2.762-2.238,5-5,5H5c-2.761,0-5-2.238-5-5V5c0-2.761,2.239-5,5-5h110c2.762,0,5,2.239,5,5V115z"
	/>
<path fill="#FFFFFF" d="M20.5,54.125c0,0-0.25-25.5,20-14.5c0,0,20,16,35.875-4.25c0,0,22.25-19,19.375,21.25
	c0,0,3,45.875-6.25,31.375c0,0-19.25-41.5-39.75-19.5c0,0-6.875,36.25-20.875,27.875c0,0-11.875-29.5-8.375-41.25"/>
<circle fill="#78C4E6" cx="35.25" cy="60.125" r="5.625"/>
<rect x="73" y="51.313" fill="#78C4E6" width="16.875" height="2.625"/>
<rect x="80.938" y="44.188" fill="#78C4E6" width="2.625" height="16.875"/>
<polygon fill="none" stroke="#FFFFFF" stroke-width="5" stroke-miterlimit="10" points="60,11.198 75.232,42.066 109.299,47.016 
	84.648,71.043 90.469,104.973 60,88.953 29.531,104.973 35.35,71.043 10.7,47.016 44.765,42.066 "/>
</svg>
