<?xml version="1.0" encoding="utf-8"?>
<!-- Generator: Adobe Illustrator 16.0.0, SVG Export Plug-In . SVG Version: 6.00 Build 0)  -->
<!DOCTYPE svg PUBLIC "-//W3C//DTD SVG 1.1//EN" "http://www.w3.org/Graphics/SVG/1.1/DTD/svg11.dtd">
<svg version="1.1" id="图层_1" xmlns="http://www.w3.org/2000/svg" xmlns:xlink="http://www.w3.org/1999/xlink" x="0px" y="0px"
	 width="120px" height="120px" viewBox="0 0 120 120" enable-background="new 0 0 120 120" xml:space="preserve">
<path fill="#78C4E6" d="M120.125,115c0,2.762-2.238,5-5,5h-110c-2.761,0-5-2.238-5-5V5c0-2.761,2.239-5,5-5h110c2.762,0,5,2.239,5,5
	V115z"/>
<path fill="#FFFFFF" d="M28.464,44.697c0,0-1.389,16.667,9.876,19.907c0,0,10.957,1.544,15.433-1.697L90.656,90.53l6.173-6.327
	L63.341,53.647c0,0,1.235-31.636-24.074-22.531c0,0,6.481,6.327,3.704,9.722l8.025,4.63l-3.858,5.093l-8.951-3.704
	C38.187,46.857,31.551,49.789,28.464,44.697z"/>
<path fill="#78C4E6" d="M32.828,46.747c0,0-1.211,14.518,8.614,17.34c0,0,9.557,1.346,13.46-1.478l32.169,24.063l5.385-5.512
	L63.248,54.543c0,0,1.077-27.558-20.998-19.627c0,0,5.653,5.512,3.23,8.469l6.999,4.033l-3.364,4.437l-7.808-3.227
	C41.308,48.628,35.52,51.183,32.828,46.747z"/>
</svg>
