<?xml version="1.0" encoding="utf-8"?>
<!-- Generator: Adobe Illustrator 16.0.0, SVG Export Plug-In . SVG Version: 6.00 Build 0)  -->
<!DOCTYPE svg PUBLIC "-//W3C//DTD SVG 1.1//EN" "http://www.w3.org/Graphics/SVG/1.1/DTD/svg11.dtd">
<svg version="1.1" id="图层_1" xmlns="http://www.w3.org/2000/svg" xmlns:xlink="http://www.w3.org/1999/xlink" x="0px" y="0px"
	 width="120px" height="120px" viewBox="0 0 120 120" enable-background="new 0 0 120 120" xml:space="preserve">
<path fill="#78C4E6" d="M120.125,115c0,2.762-2.238,5-5,5h-110c-2.761,0-5-2.238-5-5V5c0-2.761,2.239-5,5-5h110c2.762,0,5,2.239,5,5
	V115z"/>
<g>
	<g>
		<path fill-rule="evenodd" clip-rule="evenodd" d="M86.78,4.35c2.879,0,5.76,0,8.639,0c5.771,2.317,9.029,6.358,8.985,12.798
			c-0.027,4.123-0.027,8.259,0.289,12.363c0.102,1.327,0.934,3.079,1.992,3.743c1.767,1.109,3.984,1.501,6.012,2.195
			c0,13.822,0,27.644,0,41.466c-5.317-0.026-10.655-0.36-15.946-0.001c-6.839,0.468-13.574,2.517-16.518,9.181
			c-2.543,5.758-6.521,9.159-11.804,11.719c-0.771,0.372-1.407,1.023-2.106,1.547c0.111,0.172,0.222,0.345,0.332,0.518
			c2.895-1.141,5.788-2.282,8.682-3.424c0.072,0.171,0.143,0.343,0.215,0.514c-1.486,1.096-2.971,2.192-4.456,3.288
			c0.143,0.235,0.284,0.471,0.426,0.705c1.582-0.375,3.163-0.75,4.731-1.122c1.637,6.059,1.599,6.009-4.033,6.632
			c-2.373,0.263-4.693,1.015-7.037,1.545c-13.822,0-27.644,0-41.466,0c-0.43-0.345-0.807-0.833-1.297-1.012
			c-9.247-3.38-12.948-10.275-12.578-19.758c0.375-9.603,0.754-19.204,1.18-28.805c0.057-1.285,0.393-2.557,0.6-3.835
			c0.331,0.013,0.662,0.025,0.992,0.038c0.226,4.424,0.452,8.847,0.678,13.27c0.484,0.014,0.97,0.027,1.455,0.041
			c1.205-5.69,1.735-11.641,3.8-17c2.117-5.491,5.736-10.404,8.698-15.57l-0.175,0.097c0.831,1.149,2.184,2.209,2.396,3.462
			c0.668,3.958,0.863,7.993,1.323,11.988c1.623,14.126,3.014,28.314,9.096,41.455c0.889,1.92,2.14,3.672,3.222,5.503
			c0.521-0.243,1.043-0.485,1.564-0.728c-0.656-2.19-1.153-4.444-2.012-6.552c-0.852-2.09-2.068-4.031-3.124-6.037
			c0.225-0.104,0.449-0.209,0.674-0.313c0.773,0.858,1.546,1.717,2.319,2.575c0.391-0.361,0.781-0.724,1.171-1.085
			c-1.388-1.239-2.852-2.403-4.137-3.74c-0.83-0.863-2.215-2.412-1.95-2.91c1.725-3.256-0.029-5.707-1.179-8.51
			c-1.148-2.797-1.614-5.874-2.378-8.828c0.368-0.389,0.736-0.777,1.104-1.165c2.349,7.173,7.35,8.02,13.664,6.805
			c-1.017,2.004-2.376,3.555-3.564,5.227c-0.429,0.604-0.749,2.103-0.609,2.173c2.246,1.12,4.503,2.37,6.913,2.953
			c1.35,0.326,2.982-0.512,4.487-0.825c0.218,0.374,0.435,0.747,0.653,1.121c-2.268,1.771-4.535,3.541-7.368,5.752
			c5.128,0.424,9.599,0.794,14.069,1.163c-2.151,1.204-4.349,1.388-6.545,1.578c-2.149,0.186-4.298,0.377-6.447,0.565
			c0.036,0.482,0.071,0.965,0.107,1.446c3.706,0.624,7.412,1.249,11.117,1.874c0.041,0.571,0.082,1.144,0.123,1.716
			c-4.985,0.694-9.971,1.39-15.368,2.141c1.863,5.185,6.017,5.438,8.427,4.021c6.058-3.563,12.619-7.312,16.855-12.665
			c5.402-6.827,8.738-15.296,12.921-23.081c1.515-2.819,1.96-5.573-0.096-7.271c-3.832,1.326-6.85,2.792-10.027,3.349
			c-3.024,0.531-6.215,0.114-10.19,0.114c1.308,2.217,1.981,3.36,2.701,4.581c-7.01,1.455-10.173-0.213-12.602-6.259
			c5.847-0.455,12.46,0.569,17.481-1.792c5.047-2.376,12.689-0.636,14.726-7.98c-0.708-1.069-1.425-2.274-1.096-3.021
			c1.034-2.358,2.5-4.462,0.666-7.156c-0.387-0.567,0.28-1.853,0.408-2.531c-1.284-0.866-2.37-1.598-3.876-2.613
			c2.868-2.216,5.348-3.842,7.462-5.852c1.872-1.777,1.093-4.951-0.79-4.716c-4.017,0.5-5.059-2.202-6.294-3.629
			c0.572-3.641,1.658-6.749,1.343-9.707C84.144,5.621,85.319,5.155,86.78,4.35z M12.032,81.113
			C8.42,93.76,16.13,106.057,27.884,104.94C14.566,101.476,12.111,92.061,12.032,81.113z M30.927,89.439
			c1.527,4.095,2.742,7.352,3.957,10.607c0.577-0.245,1.153-0.491,1.73-0.737C35.873,95.844,34.975,92.445,30.927,89.439z"/>
		<path fill-rule="evenodd" clip-rule="evenodd" fill="#FFFFFF" d="M86.78,4.35c-1.461,0.805-2.637,1.271-2.373,3.73
			c0.315,2.958-0.771,6.066-1.343,9.707c1.235,1.427,2.277,4.129,6.294,3.629c1.883-0.234,2.662,2.939,0.79,4.716
			c-2.114,2.009-4.594,3.635-7.462,5.852c1.506,1.016,2.592,1.748,3.876,2.613c-0.128,0.678-0.795,1.963-0.408,2.531
			c1.834,2.694,0.368,4.797-0.666,7.156c-0.329,0.748,0.388,1.953,1.096,3.021c-2.036,7.344-9.679,5.604-14.726,7.98
			c-5.021,2.362-11.634,1.338-17.481,1.792c2.429,6.046,5.592,7.714,12.602,6.259c-0.72-1.221-1.394-2.363-2.701-4.581
			c3.976,0,7.166,0.417,10.19-0.114c3.178-0.558,6.195-2.023,10.027-3.349c2.056,1.698,1.61,4.453,0.096,7.271
			c-4.183,7.785-7.519,16.254-12.921,23.081c-4.236,5.354-10.797,9.103-16.855,12.665c-2.411,1.417-6.564,1.163-8.427-4.021
			c5.397-0.751,10.383-1.446,15.368-2.141c-0.041-0.572-0.082-1.145-0.123-1.716c-3.706-0.625-7.411-1.25-11.117-1.874
			c-0.036-0.481-0.071-0.964-0.107-1.446c2.149-0.188,4.298-0.38,6.447-0.565c2.197-0.19,4.394-0.374,6.545-1.578
			c-4.471-0.369-8.941-0.739-14.069-1.163c2.833-2.211,5.1-3.981,7.368-5.752c-0.218-0.374-0.435-0.747-0.653-1.121
			c-1.505,0.313-3.137,1.151-4.487,0.825c-2.409-0.583-4.667-1.833-6.913-2.953c-0.14-0.07,0.18-1.568,0.609-2.173
			c1.188-1.672,2.547-3.223,3.564-5.227c-6.314,1.215-11.315,0.368-13.664-6.805c-0.369,0.388-0.737,0.776-1.104,1.165
			c0.765,2.954,1.23,6.031,2.378,8.828c1.15,2.803,2.904,5.254,1.179,8.51c-0.265,0.498,1.121,2.047,1.95,2.91
			c1.285,1.337,2.749,2.501,4.137,3.74c-0.391,0.361-0.781,0.724-1.171,1.085c-0.773-0.858-1.546-1.717-2.319-2.575
			c-0.225,0.104-0.449,0.208-0.674,0.313c1.056,2.006,2.272,3.947,3.124,6.037c0.859,2.107,1.355,4.361,2.012,6.552
			c-0.521,0.242-1.043,0.484-1.564,0.728c-1.083-1.831-2.333-3.583-3.222-5.503c-6.082-13.141-7.473-27.328-9.096-41.455
			c-0.459-3.996-0.655-8.031-1.323-11.988c-0.211-1.253-1.565-2.313-2.396-3.462c1.173-2.216,2.346-4.433,3.587-6.777
			c2.356,0.187,4.934,0.758,7.43,0.513c4.833-0.475,9.059,0.382,12.66,3.821c0.531,0.508,1.682,0.859,2.347,0.65
			c3.417-1.072,6.768-2.351,10.286-3.61c-0.538-4.362-3.856-3.099-6.864-2.225c0.308-5.983,0.022-11.536,5.547-15.55
			c2.623-1.905,2.136-5.379-0.334-7.956C70.079,4.35,78.429,4.35,86.78,4.35z M51.719,56.432c-3.626-2.888-7.444-5.104-10.128-8.28
			c-3.196-3.782-5.42-1.876-8.028-0.294c1.049,2.313,2.252,4.22,2.77,6.299c0.644,2.584,0.898,5.422,4.228,5.581
			C44.538,59.926,48.761,60.3,51.719,56.432z M48.603,39.827c-2.116,2.563-2.007,7.693,1.009,10.79
			C49.262,46.871,48.904,43.051,48.603,39.827z"/>
		<path fill-rule="evenodd" clip-rule="evenodd" d="M61.728,4.35c2.47,2.577,2.957,6.051,0.334,7.956
			c-5.525,4.014-5.24,9.567-5.547,15.55c3.008-0.874,6.326-2.137,6.864,2.225c-3.518,1.259-6.869,2.538-10.286,3.61
			c-0.666,0.209-1.816-0.142-2.347-0.65c-3.601-3.438-7.828-4.295-12.66-3.821c-2.497,0.246-5.074-0.326-7.43-0.513
			c-1.241,2.344-2.414,4.561-3.587,6.777l0.175-0.097c-3.344,3.622-6.661,7.27-10.047,10.853c-1.419,1.502-2.985,2.866-5.232,5.004
			c0-11.258-1.442-21.295,0.348-30.718C14.8,7.437,23.931,4.972,35.147,8.489c0.32,0.101,0.517,0.597,0.775,0.914
			c-0.325,1.245-0.625,2.396-0.967,3.708c2.95,0.19,6.262,1.725,7.075-2.228c0.859-4.172,4.48-4.908,6.808-4.283
			c2.969,0.796,3.308-0.64,4.25-2.25C55.968,4.35,58.848,4.35,61.728,4.35z M14.194,23.41c0.087,0.503,0.174,1.005,0.262,1.507
			c2.548,0,5.475,0.787,7.547-0.207c2.393-1.147,5.199-3.604,5.725-5.96c0.782-3.504-3.139-1.993-4.999-2.736
			c-0.228-0.091-0.382-0.366-0.842-0.831c1.649-4.017,8.897,0.83,9.19-5.448c-3.824,0-7.514,0-11.194,0
			c-1.284,3.172-2.491,6.154-3.833,9.47c3.019,0.282,5.574,0.52,8.127,0.758c0.051,0.572,0.101,1.143,0.151,1.715
			C20.951,22.256,17.572,22.833,14.194,23.41z M39.018,23.597c0.056,0.459,0.112,0.919,0.168,1.378c2.796,0,5.959,0.818,8.287-0.226
			c2.406-1.081,4-3.97,5.95-6.068c-1.616-0.958-3.234-1.913-4.843-2.881c-0.101-0.061-0.133-0.238-0.365-0.684
			c2.111-3.936,8.997,0.759,10.139-5.374c-3.908,0-7.72,0-11.637,0c-1.441,2.969-2.879,5.932-4.524,9.319
			c2.935,0.26,5.11,0.452,7.285,0.645c0.077,0.595,0.153,1.189,0.23,1.784C46.145,22.192,42.582,22.895,39.018,23.597z
			 M34.222,18.698c-0.644-1.085-1.328-2.239-2.012-3.392c-0.646,0.437-1.855,0.886-1.846,1.308c0.053,2.41,0.301,4.833,0.767,7.196
			c0.056,0.286,2.299,0.696,2.714,0.264c2.438-2.534,4.634-5.301,6.912-7.989c-0.341-0.42-0.682-0.84-1.022-1.261
			C37.823,16.167,35.912,17.51,34.222,18.698z"/>
		<path fill-rule="evenodd" clip-rule="evenodd" fill="#FFFFFF" d="M65.183,108.017c2.344-0.53,4.664-1.282,7.037-1.545
			c5.632-0.623,5.67-0.573,4.033-6.632c-1.568,0.372-3.149,0.747-4.731,1.122c-0.142-0.234-0.283-0.47-0.426-0.705
			c1.485-1.096,2.97-2.192,4.456-3.288c-0.072-0.171-0.143-0.343-0.215-0.514c-2.894,1.142-5.787,2.283-8.682,3.424
			c-0.11-0.173-0.221-0.346-0.332-0.518c0.699-0.523,1.335-1.175,2.106-1.547c5.282-2.56,9.261-5.961,11.804-11.719
			c2.943-6.664,9.679-8.713,16.518-9.181c5.291-0.359,10.629-0.025,15.946,0.001c0,10.367,0,20.733,0,31.101
			C96.859,108.017,81.021,108.017,65.183,108.017z M84.961,96.549c1.001,4.873,3.398,7.006,7.744,7.326
			c5.983,0.44,8.902-0.846,10.943-4.528c0.868-1.564,2.741-2.573,4.239-3.906c-1.541-1.023-3.43-2.277-5.386-3.576
			c-2.248,1.684-6.038,2.05-4.415,6.483c0.215,0.588-1.455,1.865-2.252,2.822c-0.889-0.778-2.128-1.386-2.602-2.364
			c-1.946-4.02,1.43-9.604,5.94-9.375c4.434,0.227,5.916-2.303,7.009-4.626c-2.751,0.979-5.862,1.912-8.813,3.209
			c-1.441,0.634-3.119,1.683-3.763,2.997C91.843,94.615,90.354,98.175,84.961,96.549z"/>
		<path fill-rule="evenodd" clip-rule="evenodd" fill="#FFFFFF" d="M53.089,4.35c-0.941,1.61-1.281,3.046-4.25,2.25
			c-2.328-0.625-5.949,0.111-6.808,4.283c-0.813,3.953-4.125,2.418-7.075,2.228c0.342-1.313,0.642-2.463,0.967-3.708
			c-0.258-0.316-0.455-0.813-0.775-0.914C23.931,4.972,14.8,7.437,12.312,20.525c-1.791,9.422-0.348,19.459-0.348,30.718
			c2.247-2.138,3.813-3.502,5.232-5.004c3.386-3.583,6.703-7.23,10.047-10.853c-2.962,5.166-6.582,10.079-8.698,15.57
			c-2.065,5.359-2.596,11.309-3.8,17c-0.485-0.014-0.97-0.027-1.455-0.041c-0.226-4.423-0.452-8.846-0.678-13.27
			c-0.33-0.013-0.661-0.025-0.992-0.038c-0.207,1.278-0.542,2.55-0.6,3.835c-0.425,9.601-0.805,19.202-1.18,28.805
			c-0.37,9.482,3.332,16.378,12.578,19.758c0.49,0.179,0.867,0.667,1.297,1.012c-4.882,0-9.765,0-14.667,0
			c0-34.451,0-68.902,0-103.667C23.715,4.35,38.402,4.35,53.089,4.35z"/>
		<path fill-rule="evenodd" clip-rule="evenodd" fill="#FFFFFF" d="M112.697,35.45c-2.027-0.694-4.245-1.086-6.012-2.195
			c-1.059-0.665-1.891-2.416-1.992-3.743c-0.316-4.104-0.316-8.241-0.289-12.363c0.044-6.44-3.214-10.481-8.985-12.798
			c5.76,0,11.519,0,17.278,0C112.697,14.716,112.697,25.083,112.697,35.45z M108.948,14.823c-0.904,0.187-1.81,0.374-2.714,0.561
			c3.358,4.621,0.93,10.454,3.139,15.315c0.701-0.134,1.401-0.269,2.103-0.403C110.634,25.138,109.791,19.98,108.948,14.823z"/>
		<path fill-rule="evenodd" clip-rule="evenodd" fill="#FFFFFF" d="M12.032,81.113c0.079,10.947,2.534,20.362,15.853,23.827
			C16.13,106.057,8.42,93.76,12.032,81.113z"/>
		<path fill-rule="evenodd" clip-rule="evenodd" fill="#FFFFFF" d="M30.927,89.439c4.048,3.006,4.946,6.404,5.687,9.87
			c-0.577,0.246-1.153,0.492-1.73,0.737C33.669,96.791,32.454,93.534,30.927,89.439z"/>
		<path fill-rule="evenodd" clip-rule="evenodd" d="M51.719,56.432c-2.958,3.868-7.182,3.495-11.159,3.305
			c-3.329-0.159-3.583-2.997-4.228-5.581c-0.518-2.079-1.721-3.986-2.77-6.299c2.608-1.582,4.832-3.487,8.028,0.294
			C44.275,51.327,48.093,53.543,51.719,56.432z"/>
		<path fill-rule="evenodd" clip-rule="evenodd" d="M48.603,39.827c0.301,3.224,0.659,7.044,1.009,10.79
			C46.596,47.52,46.487,42.39,48.603,39.827z"/>
		<path fill-rule="evenodd" clip-rule="evenodd" fill="#FFFFFF" d="M14.194,23.41c3.378-0.577,6.757-1.154,10.135-1.731
			c-0.05-0.572-0.101-1.143-0.151-1.715c-2.554-0.239-5.108-0.477-8.127-0.758c1.342-3.316,2.549-6.298,3.833-9.47
			c3.68,0,7.37,0,11.194,0c-0.293,6.278-7.541,1.432-9.19,5.448c0.459,0.465,0.614,0.74,0.842,0.831
			c1.86,0.743,5.781-0.769,4.999,2.736c-0.526,2.356-3.333,4.813-5.725,5.96c-2.072,0.994-4.999,0.207-7.547,0.207
			C14.368,24.415,14.281,23.913,14.194,23.41z"/>
		<path fill-rule="evenodd" clip-rule="evenodd" fill="#FFFFFF" d="M39.018,23.597c3.563-0.702,7.127-1.405,10.69-2.107
			c-0.077-0.595-0.153-1.189-0.23-1.784c-2.175-0.192-4.351-0.385-7.285-0.645c1.645-3.387,3.083-6.35,4.524-9.319
			c3.917,0,7.729,0,11.637,0c-1.142,6.133-8.028,1.438-10.139,5.374c0.232,0.445,0.264,0.623,0.365,0.684
			c1.609,0.968,3.227,1.923,4.843,2.881c-1.949,2.098-3.543,4.988-5.95,6.068c-2.328,1.044-5.491,0.226-8.287,0.226
			C39.13,24.516,39.074,24.056,39.018,23.597z"/>
		<path fill-rule="evenodd" clip-rule="evenodd" fill="#FFFFFF" d="M34.222,18.698c1.69-1.188,3.601-2.532,5.512-3.874
			c0.341,0.42,0.682,0.84,1.022,1.261c-2.278,2.688-4.474,5.456-6.912,7.989c-0.415,0.432-2.658,0.022-2.714-0.264
			c-0.466-2.363-0.713-4.786-0.767-7.196c-0.009-0.422,1.2-0.871,1.846-1.308C32.894,16.459,33.578,17.613,34.222,18.698z"/>
		<path fill-rule="evenodd" clip-rule="evenodd" d="M84.961,96.549c5.393,1.626,6.882-1.934,8.646-5.538
			c0.644-1.314,2.321-2.363,3.763-2.997c2.95-1.297,6.062-2.23,8.813-3.209c-1.093,2.323-2.575,4.853-7.009,4.626
			c-4.511-0.229-7.887,5.355-5.94,9.375c0.474,0.979,1.713,1.586,2.602,2.364c0.797-0.957,2.467-2.234,2.252-2.822
			c-1.623-4.434,2.167-4.8,4.415-6.483c1.956,1.299,3.845,2.553,5.386,3.576c-1.498,1.333-3.371,2.342-4.239,3.906
			c-2.041,3.683-4.96,4.969-10.943,4.528C88.359,103.555,85.962,101.422,84.961,96.549z"/>
		<path fill-rule="evenodd" clip-rule="evenodd" d="M108.948,14.823c0.843,5.158,1.686,10.315,2.527,15.473
			c-0.701,0.135-1.401,0.269-2.103,0.403c-2.209-4.862,0.22-10.695-3.139-15.315C107.139,15.196,108.044,15.009,108.948,14.823z"/>
	</g>
</g>
</svg>
