<?xml version="1.0" encoding="utf-8"?>
<!-- Generator: Adobe Illustrator 16.0.0, SVG Export Plug-In . SVG Version: 6.00 Build 0)  -->
<!DOCTYPE svg PUBLIC "-//W3C//DTD SVG 1.1//EN" "http://www.w3.org/Graphics/SVG/1.1/DTD/svg11.dtd">
<svg version="1.1" id="图层_1" xmlns="http://www.w3.org/2000/svg" xmlns:xlink="http://www.w3.org/1999/xlink" x="0px" y="0px"
	 width="120px" height="120px" viewBox="0 0 120 120" enable-background="new 0 0 120 120" xml:space="preserve">
<path fill="#78C4E6" d="M120,115c0,2.762-2.238,5-5,5H5c-2.761,0-5-2.238-5-5V5c0-2.761,2.239-5,5-5h110c2.762,0,5,2.239,5,5V115z"
	/>
<path fill="#FFFFFF" d="M10.737,62.501c0,0,1.749-20.254,12.931-28.617c3.391-2.536,7.649-3.979,12.989-3.431
	C42.77,31.08,50.3,34.314,59.57,41.5c0,0,5.333,3.333,7.999-1c0,0,18.168-22.325,25.834-4.246c0,0,2.834,3.579,5.334,2.579
	c0,0,4.666-12.622,14.832-9.644c0,0,14.666,18.31-6.5,35.977c0,0-2.539-0.013-6.558,0.213c-4.734,0.267-11.521,0.863-18.63,2.202
	c-1.933,0.364-3.889,0.783-5.834,1.265c-0.628,0.155-1.255,0.317-1.88,0.486c-6.2,1.679-12.171,4.033-16.765,7.334
	c-1.199,0.861-2.426,1.621-3.669,2.289c-2.499,1.343-5.065,2.316-7.613,3.005c-13.355,3.607-26.217-0.627-26.217-0.627
	S-4.93,88.5,3.07,63.667C3.07,63.667,2.5,42.833,10.737,62.501z"/>
<path fill="#FFFFFF" d="M45.833,110.167"/>
<path fill="#FFFFFF" d="M67.968,71.012c-19.634,7.321-15.634,6.321-15.634,6.321s31.667,10.833,59.5-7.5c0,0,10.834-12-2-17.667
	L49.167,66.339"/>
<rect x="57.523" y="44.664" fill="#78C4E6" width="4.954" height="14.336"/>
<polygon fill="#78C4E6" points="69.134,60.334 60,76.154 50.866,60.334 "/>
</svg>
