<?xml version="1.0" encoding="utf-8"?>
<!-- Generator: Adobe Illustrator 16.0.0, SVG Export Plug-In . SVG Version: 6.00 Build 0)  -->
<!DOCTYPE svg PUBLIC "-//W3C//DTD SVG 1.1//EN" "http://www.w3.org/Graphics/SVG/1.1/DTD/svg11.dtd">
<svg version="1.1" id="图层_1" xmlns="http://www.w3.org/2000/svg" xmlns:xlink="http://www.w3.org/1999/xlink" x="0px" y="0px"
	 width="120px" height="120px" viewBox="0 0 120 120" enable-background="new 0 0 120 120" xml:space="preserve">
<path fill="#78C4E6" d="M120,115.334c0,2.762-2.238,5-5,5H5c-2.761,0-5-2.238-5-5v-110c0-2.761,2.239-5,5-5h110c2.762,0,5,2.239,5,5
	V115.334z"/>
<circle fill="#FFFFFF" cx="58.5" cy="38.5" r="13.5"/>
<path fill="#FFFFFF" d="M51.828,49.606c0,0-11.828,6.769-11.828,32.727c0,0,6,6.417,15.167,6.667c0,0,10.833,1.625,17.833-6.167
	c0,0,8-10.083-6.395-32.855"/>
<circle fill="#78C4E6" cx="53.625" cy="36.5" r="2.5"/>
<circle fill="#78C4E6" cx="64.75" cy="36.5" r="2.5"/>
<path fill="#FFFFFF" d="M33.754,68.466c-0.638,0.196-1.42-0.513-1.744-1.58l0,0c-0.324-1.065-0.069-2.089,0.57-2.284l15.04-4.569
	c0.638-0.196,1.42,0.513,1.744,1.58l0,0c0.324,1.065,0.069,2.089-0.57,2.284L33.754,68.466z"/>
<path fill="#FFFFFF" d="M67.104,64.873c-0.65-0.15-0.971-1.156-0.715-2.242l0,0c0.255-1.084,0.99-1.84,1.641-1.688l15.299,3.604
	c0.651,0.15,0.972,1.157,0.715,2.242l0,0c-0.255,1.084-0.988,1.842-1.64,1.689L67.104,64.873z"/>
</svg>
