<?xml version="1.0" encoding="utf-8"?>
<!-- Generator: Adobe Illustrator 16.0.0, SVG Export Plug-In . SVG Version: 6.00 Build 0)  -->
<!DOCTYPE svg PUBLIC "-//W3C//DTD SVG 1.1//EN" "http://www.w3.org/Graphics/SVG/1.1/DTD/svg11.dtd">
<svg version="1.1" id="图层_1" xmlns="http://www.w3.org/2000/svg" xmlns:xlink="http://www.w3.org/1999/xlink" x="0px" y="0px"
	 width="120px" height="120px" viewBox="0 0 120 120" enable-background="new 0 0 120 120" xml:space="preserve">
<path fill="#78C4E6" d="M120.125,115c0,2.762-2.238,5-5,5h-110c-2.761,0-5-2.238-5-5V5c0-2.761,2.239-5,5-5h110c2.762,0,5,2.239,5,5
	V115z"/>
<path display="none" fill="#FFFFFF" d="M80.228,29.438h-0.919c0,0-19.856-6.894-29.784-10.02c0,0-34.012-5.975-23.809,19.488
	c0,0-0.368,12.042,5.332,18.937c0,0,0.874,12.088,5.792,26.567c0.505,0.873-0.092,6.985-2.022,9.561
	c-1.104,2.619,1.716,13.727,1.716,13.727h1.716c0,0,0.291-16.209,3.922-2.819c0.203,0.6,0.368,3.8,7.967,0.981
	c0,0,2.697-4.535-2.329-5.884c0,0-1.104-0.734-2.329-8.334c0,0-1.471-24.023,5.883-7.231c0,0,0.827,3.125-1.471,5.883
	c0,0.552,0,8.947,0,8.947l2.125,0.49c0,0,2.392-9.314,3.627,2.574l5.892,0.245c0,0,3.8-3.31-0.98-6.006c0,0-2.114-2.16-1.96-8.09
	c0.306-1.103-3.31-16.302-5.884-18.63c0,0,28.558-37.506,26.842-24.022c0,0-0.144,2.308-0.49,6.618
	c-0.214,1.838,7.477,2.942,6.741,6.618c-0.734,3.678,4.657-0.123,5.515-4.413c0.859-4.29,2.575,1.839,2.207,3.188
	c-0.368,1.348,8.58-4.291,6.25-11.644c0,0,0.583-6.266,6.006-3.751C106.182,43.641,100.451,11.236,80.228,29.438z M44.254,74.235
	c0,0-1.226,1.472-2.574-1.961s0-9.928,0-9.928S44.377,72.765,44.254,74.235z M50.138,60.018c0,0-2.941-12.134-2.941-24.758
	c0,0,2.752,6.864,9.527,5.638c0,0-1.806,4.29,3.22,7.722C59.943,48.62,50.628,55.973,50.138,60.018z"/>
<g>
	<g>
		<path fill-rule="evenodd" clip-rule="evenodd" fill="#FFFFFF" d="M115.417,78.333c0,12.528,0,25.056,0,37.584
			c-36.667,0-73.333,0-110,0c0-36.667,0-73.333,0-110c36.667,0,73.333,0,110,0c0,22.612,0,45.222,0,67.833
			c-1.195,0.185-2.391,0.524-3.587,0.529c-14.046,0.047-28.092,0.057-42.14,0.035c-1.576-0.001-3.152-0.256-5.294-0.441
			c1.831-5.432,3.256-10.245,5.149-14.867c0.476-1.161,2.404-2.309,3.753-2.422c4.096-0.344,8.235-0.216,12.358-0.202
			c7.485,0.026,8.593-1.021,8.996-9.258c-1.437,8.495-7.623,7.513-13.456,7.223c-0.915-0.045-1.827-0.156-2.741-0.205
			c-11.435-0.613-10.002-1.8-13.157,9.351c-0.29,1.024-0.697,2.02-1.088,3.013c-3.374,8.597-3.384,8.64-12.755,7.189
			c-0.873-0.135-1.59-1.275-1.863-1.509c-2.067-0.788-4.115-0.958-5.169-2.07c-7.347-7.754-14.652-15.562-21.643-23.636
			c-5.512-6.367-5.644-6.609-12.276-1.766c0-2.837-0.113-5.375,0.024-7.898c0.265-4.877,2.579-7.351,7.444-7.504
			c11.136-0.351,22.279-0.521,33.42-0.688c1.413-0.021,2.833,0.408,5.476,0.82c-3.107,3.169-0.777,8.5-5.995,8.989
			c-2.592,0.244-6.491,2.052-7.634-3.358c-1.611,3.507-3.104,6.339-4.179,9.321c-0.379,1.05-0.172,2.83,0.513,3.659
			c3.455,4.18,7.155,8.154,11.283,12.776c4.468-11.681,8.325-21.753,12.173-31.83c1.496-3.917,3.681-7.133,8.312-7.468
			c13.326-0.965,26.927,2.039,40.609-3.534c-2.106,4.253-4.126,7.537-5.396,11.089c-1.765,4.934-5.925,4.86-9.702,4.895
			c-5.721,0.053-11.454-0.545-17.173-0.979c-3.107-0.235-4.571,0.686-5.029,4.13c-0.312,2.337-2.276,4.455-2.974,5.717
			c7.167,0,15.741,0,24.316,0c0.002-0.623,0.004-1.245,0.006-1.867c-6.574,0-13.148,0-19.624,0
			c-0.546-4.153,1.307-4.903,3.952-4.917c7.177-0.039,14.355-0.017,21.525-0.24c1.485-0.045,3.659-0.615,4.285-1.672
			c2.718-4.587,5.117-9.383,7.307-14.249c0.509-1.13,0.205-3.278-0.601-4.131c-0.595-0.63-2.635-0.043-3.989,0.216
			c-4.252,0.815-8.455,2.264-12.729,2.493c-7.919,0.423-15.908-0.259-23.8,0.378c-3.302,0.267-7.278,1.974-9.404,4.386
			c-2.37,2.69-4.502,3.466-7.748,3.431c-12.062-0.13-24.126-0.12-36.188-0.063c-7.676,0.037-11.568,4.247-10.947,11.872
			c0.302,3.71,0.985,7.391,1.619,11.976c2.054-1.893,3.281-3.57,4.933-4.371c1.305-0.633,3.833-0.895,4.619-0.114
			c8.446,8.387,16.724,16.949,24.841,25.657c1.04,1.115,1.703,3.748,1.09,4.921c-0.67,1.287-2.952,1.976-4.662,2.405
			c-1.583,0.397-3.403-0.165-4.994,0.215c-1.018,0.242-1.811,1.427-2.705,2.189c1.712,0.947,2.754,0.89,3.786,0.963
			c1.09,0.077,2.172,0.278,3.258,0.425c0.036,0.582,0.072,1.163,0.107,1.744c-4.513,0.702-9.026,1.403-13.755,2.138
			c1.745-10.74,2.643-11.573,11.921-12.404c-1.85,0-5.189-1.006-7.209,0.199c-4.951,2.955-10.053,2.017-15.137,1.987
			c-7.043-0.041-8.544,2.013-6.181,9.213c5.187-3.594,6.541,2.076,9.247,4.054c3.21,2.347,5.891,5.417,9.155,8.509
			c0.681-1.645,1.218-2.449,1.336-3.312c0.795-5.799,4.291-6.771,9.647-6.686c20.454,0.331,40.925-0.147,61.373,0.319
			c7.18,0.164,12.477-0.781,14.024-8.777C114.451,79.223,115.05,78.801,115.417,78.333z M100.584,93.327
			c0.058,0.999,0.116,1.998,0.181,3.114c1.891,0,3.625,0,4.805,0c0.659-2.019,1.19-3.648,2.104-6.442
			c-2.646,1.284-4.928,2.391-7.208,3.497c0.101-4.01-3.122-3.152-4.785-2.496c-1.669,0.658-2.735,2.842-4.066,4.356
			c0.437,0.381,0.873,0.763,1.311,1.144c0.896-0.729,1.794-1.457,2.53-2.056c0.984,0.859,1.724,1.505,2.473,2.159
			C98.951,95.341,99.759,94.347,100.584,93.327z M49.217,96.187c6.217,0.847,7.09,0.244,7.311-4.759
			C50.629,90.374,49.907,90.819,49.217,96.187z M73.167,91.139c-6.567-0.314-6.725-0.164-5.937,5.172
			C70.712,96.635,70.712,96.635,73.167,91.139z M48.816,91.855c-6.377-1.826-7.888-0.914-8.057,4.755
			c1.209-0.812,2.221-1.489,3.176-2.131c0.748,0.794,1.397,1.482,2.291,2.431C47.165,95.078,47.898,93.646,48.816,91.855z
			 M64.863,91.848c-0.12-0.309-0.239-0.617-0.359-0.927c-1.626,0.106-3.626-0.319-4.764,0.481c-0.938,0.661-0.856,2.772-1.227,4.24
			c1.604,0.198,3.21,0.395,4.815,0.592c0.052-1.129-0.015-2.282,0.216-3.372C63.632,92.449,64.404,92.182,64.863,91.848z
			 M40.495,92.305c-5.605-2.659-7.492-1.649-8.439,4.5c2.277-0.276,4.338-0.527,6.398-0.777c-0.05-0.442-0.101-0.884-0.151-1.325
			c-1.138,0-2.275,0-3.413,0c-0.06-0.442-0.12-0.885-0.18-1.328C36.409,93.06,38.107,92.746,40.495,92.305z M85.518,91.308
			c-6.996-0.625-8.046,0.21-7.199,5.328C80.593,94.952,82.766,93.344,85.518,91.308z"/>
		<path fill-rule="evenodd" clip-rule="evenodd" d="M115.417,78.333c-0.367,0.468-0.966,0.89-1.065,1.408
			c-1.548,7.996-6.845,8.941-14.024,8.777c-20.448-0.467-40.919,0.012-61.373-0.319c-5.357-0.086-8.853,0.887-9.647,6.686
			c-0.118,0.862-0.656,1.667-1.336,3.312c-3.264-3.092-5.945-6.162-9.155-8.509c-2.706-1.978-4.06-7.647-9.247-4.054
			c-2.364-7.2-0.862-9.254,6.181-9.213c5.084,0.029,10.186,0.968,15.137-1.987c2.02-1.205,5.359-0.199,7.209-0.199
			c-9.279,0.831-10.176,1.664-11.921,12.404c4.729-0.734,9.242-1.436,13.755-2.138c-0.036-0.581-0.072-1.162-0.107-1.744
			c-1.085-0.146-2.167-0.348-3.258-0.425c-1.032-0.073-2.074-0.016-3.786-0.963c0.894-0.763,1.687-1.947,2.705-2.189
			c1.591-0.38,3.412,0.183,4.994-0.215c1.71-0.43,3.991-1.118,4.662-2.405c0.612-1.173-0.051-3.806-1.09-4.921
			c-8.117-8.708-16.395-17.271-24.841-25.657c-0.786-0.781-3.314-0.519-4.619,0.114c-1.652,0.801-2.879,2.478-4.933,4.371
			c-0.634-4.585-1.317-8.265-1.619-11.976c-0.621-7.625,3.271-11.835,10.947-11.872c12.063-0.057,24.126-0.068,36.188,0.063
			c3.246,0.035,5.378-0.741,7.748-3.431c2.126-2.413,6.103-4.12,9.404-4.386c7.892-0.637,15.881,0.045,23.8-0.378
			c4.274-0.229,8.478-1.678,12.729-2.493c1.354-0.259,3.395-0.847,3.989-0.216c0.806,0.853,1.109,3,0.601,4.131
			c-2.189,4.866-4.589,9.662-7.307,14.249c-0.626,1.057-2.8,1.626-4.285,1.672c-7.17,0.223-14.349,0.202-21.525,0.24
			c-2.646,0.014-4.498,0.764-3.952,4.917c6.476,0,13.05,0,19.624,0c-0.002,0.622-0.004,1.244-0.006,1.867
			c-8.575,0-17.149,0-24.316,0c0.697-1.262,2.662-3.379,2.974-5.717c0.458-3.445,1.922-4.366,5.029-4.13
			c5.719,0.433,11.452,1.031,17.173,0.979c3.777-0.035,7.938,0.039,9.702-4.895c1.271-3.552,3.29-6.836,5.396-11.089
			c-13.683,5.573-27.283,2.569-40.609,3.534c-4.631,0.335-6.815,3.552-8.312,7.468c-3.848,10.076-7.705,20.149-12.173,31.83
			c-4.127-4.622-7.828-8.597-11.283-12.776c-0.685-0.829-0.892-2.608-0.513-3.659c1.076-2.982,2.568-5.814,4.179-9.321
			c1.144,5.41,5.042,3.602,7.634,3.358c5.217-0.489,2.887-5.82,5.995-8.989c-2.643-0.412-4.063-0.841-5.476-0.82
			c-11.141,0.167-22.284,0.336-33.42,0.688c-4.866,0.153-7.179,2.626-7.444,7.504c-0.137,2.524-0.024,5.062-0.024,7.898
			c6.632-4.843,6.764-4.601,12.276,1.766c6.991,8.075,14.296,15.882,21.643,23.636c1.054,1.112,3.102,1.282,5.169,2.07
			c0.273,0.233,0.99,1.374,1.863,1.509c9.372,1.45,9.381,1.407,12.755-7.189c0.391-0.993,0.798-1.988,1.088-3.013
			c3.155-11.15,1.723-9.963,13.157-9.351c0.914,0.049,1.826,0.16,2.741,0.205c5.833,0.29,12.02,1.272,13.456-7.223
			c-0.403,8.237-1.511,9.284-8.996,9.258c-4.123-0.014-8.263-0.142-12.358,0.202c-1.349,0.113-3.277,1.261-3.753,2.422
			c-1.894,4.622-3.318,9.436-5.149,14.867c2.142,0.186,3.718,0.44,5.294,0.441c14.048,0.021,28.094,0.012,42.14-0.035
			c1.196-0.005,2.392-0.345,3.587-0.529C115.417,75.278,115.417,76.806,115.417,78.333z M51.317,55.338
			c1.735-5.375,3.101-9.6,4.457-13.8c-3.338,0-6.333-0.148-9.306,0.043c-2.928,0.188-5.037,1.953-3.295,4.754
			C45.083,49.408,48.053,51.822,51.317,55.338z M26.555,78.843c-8.928-3.104-15.664-1.599-16.176,2.836
			c2.937,0.512,6.038,1.787,8.857,1.329C21.832,82.587,24.127,80.305,26.555,78.843z M78.615,76.048
			c-2.384,0.233-4.246,0.504-6.115,0.57c-1.456,0.051-3.488-0.782-4.248-0.096c-1.138,1.025-1.383,3.04-2.195,5.114
			c2.71-0.508,4.551-1.438,5.977-1.006C75.803,81.778,77.385,80.059,78.615,76.048z M53.508,80.441
			c2.06-0.24,4.139-0.306,6.127-0.765c1.848-0.427,3.601-1.272,5.396-1.935C57.334,74.107,53.248,75.41,53.508,80.441z
			 M96.146,75.958c-0.355-0.146-0.711-0.292-1.066-0.439c-0.998,1.955-1.996,3.909-3.495,6.846
			c4.681-3.058,10.625,1.354,12.598-4.86c-3.01-4.079-5.158-0.184-7.653,1.405C96.361,77.619,96.253,76.789,96.146,75.958z"/>
		<path fill-rule="evenodd" clip-rule="evenodd" d="M49.217,96.187c0.69-5.367,1.413-5.813,7.311-4.759
			C56.307,96.431,55.434,97.033,49.217,96.187z"/>
		<path fill-rule="evenodd" clip-rule="evenodd" d="M100.566,93.352c-0.808,0.995-1.615,1.989-2.64,3.252
			c-0.749-0.654-1.488-1.3-2.473-2.159c-0.736,0.599-1.634,1.327-2.53,2.056c-0.438-0.381-0.874-0.763-1.311-1.144
			c1.331-1.515,2.397-3.698,4.066-4.356c1.663-0.656,4.886-1.514,4.785,2.496L100.566,93.352z"/>
		<path fill-rule="evenodd" clip-rule="evenodd" d="M73.167,91.139c-2.455,5.496-2.455,5.496-5.937,5.172
			C66.442,90.975,66.6,90.824,73.167,91.139z"/>
		<path fill-rule="evenodd" clip-rule="evenodd" d="M48.816,91.855c-0.918,1.791-1.651,3.223-2.59,5.055
			c-0.894-0.948-1.542-1.637-2.291-2.431c-0.956,0.642-1.967,1.319-3.176,2.131C40.928,90.941,42.438,90.029,48.816,91.855z"/>
		<path fill-rule="evenodd" clip-rule="evenodd" d="M64.863,91.848c-0.459,0.334-1.231,0.602-1.318,1.015
			c-0.23,1.09-0.164,2.243-0.216,3.372c-1.605-0.197-3.211-0.394-4.815-0.592c0.37-1.468,0.288-3.579,1.227-4.24
			c1.138-0.801,3.138-0.375,4.764-0.481C64.624,91.23,64.743,91.539,64.863,91.848z"/>
		<path fill-rule="evenodd" clip-rule="evenodd" d="M100.465,93.496c2.28-1.106,4.562-2.213,7.208-3.497
			c-0.913,2.794-1.444,4.424-2.104,6.442c-1.18,0-2.914,0-4.805,0c-0.064-1.116-0.123-2.115-0.189-3.102
			C100.566,93.352,100.465,93.496,100.465,93.496z"/>
		<path fill-rule="evenodd" clip-rule="evenodd" d="M40.495,92.305c-2.387,0.441-4.086,0.755-5.784,1.069
			c0.06,0.443,0.12,0.886,0.18,1.328c1.137,0,2.275,0,3.413,0c0.051,0.441,0.102,0.883,0.151,1.325
			c-2.061,0.25-4.121,0.501-6.398,0.777C33.002,90.655,34.89,89.646,40.495,92.305z"/>
		<path fill-rule="evenodd" clip-rule="evenodd" d="M85.518,91.308c-2.752,2.036-4.925,3.645-7.199,5.328
			C77.472,91.518,78.521,90.683,85.518,91.308z"/>
		<path fill-rule="evenodd" clip-rule="evenodd" fill="#FFFFFF" d="M51.317,55.338c-3.265-3.516-6.234-5.93-8.144-9.003
			c-1.742-2.802,0.367-4.566,3.295-4.754c2.973-0.191,5.968-0.043,9.306-0.043C54.418,45.738,53.053,49.963,51.317,55.338z"/>
		<path fill-rule="evenodd" clip-rule="evenodd" fill="#FFFFFF" d="M26.555,78.843c-2.428,1.462-4.723,3.744-7.319,4.165
			c-2.819,0.458-5.92-0.817-8.857-1.329C10.891,77.244,17.627,75.738,26.555,78.843z"/>
		<path fill-rule="evenodd" clip-rule="evenodd" fill="#FFFFFF" d="M78.615,76.048c-1.23,4.011-2.813,5.73-6.582,4.583
			c-1.426-0.433-3.267,0.498-5.977,1.006c0.813-2.074,1.058-4.089,2.195-5.114c0.76-0.687,2.792,0.146,4.248,0.096
			C74.369,76.552,76.231,76.281,78.615,76.048z"/>
		<path fill-rule="evenodd" clip-rule="evenodd" fill="#FFFFFF" d="M53.508,80.441c-0.26-5.031,3.826-6.334,11.522-2.699
			c-1.795,0.662-3.548,1.508-5.396,1.935C57.646,80.136,55.567,80.201,53.508,80.441z"/>
		<path fill-rule="evenodd" clip-rule="evenodd" fill="#FFFFFF" d="M96.146,75.958c0.107,0.831,0.216,1.661,0.383,2.951
			c2.495-1.589,4.644-5.484,7.653-1.405c-1.973,6.214-7.917,1.803-12.598,4.86c1.499-2.937,2.497-4.891,3.495-6.846
			C95.435,75.666,95.79,75.812,96.146,75.958z"/>
	</g>
</g>
</svg>
