<?xml version="1.0" encoding="utf-8"?>
<!-- Generator: Adobe Illustrator 16.0.0, SVG Export Plug-In . SVG Version: 6.00 Build 0)  -->
<!DOCTYPE svg PUBLIC "-//W3C//DTD SVG 1.1//EN" "http://www.w3.org/Graphics/SVG/1.1/DTD/svg11.dtd">
<svg version="1.1" id="图层_1" xmlns="http://www.w3.org/2000/svg" xmlns:xlink="http://www.w3.org/1999/xlink" x="0px" y="0px"
	 width="108px" height="74px" viewBox="0 0 108 74" enable-background="new 0 0 108 74" xml:space="preserve">
<g>
	<rect x="-2.25" y="0.194" display="none" width="114.5" height="75"/>
	<path id="bottm" fill="#FFFFFF" d="M35.238,42.333c0,0-10.051-34,32.163-23c0,0,19.097-13,26.132-10c0,0-15.075,3-12.06,11
		c0,0,18.342,11.668,3.015,22c0,0-19.642,13-20.375,8c0,0,15.793,18.333,13.34,21s-56.964,2.583-57.292,0
		S42.273,51.333,35.238,42.333z"/>
	<polygon id="top" fill="#FFFFFF" points="21.978,57.313 26.25,41.339 -0.625,41.483 34.621,25.917 49.208,7.208 67.918,13.14 
		107.375,0.194 80.47,20.993 89.499,32.651 53.967,38.678 	"/>
	<ellipse id="眼睛" fill="#70BE72" cx="82.747" cy="32.303" rx="1.302" ry="2.968"/>
</g>
</svg>
