<?xml version="1.0" encoding="utf-8"?>
<!-- Generator: Adobe Illustrator 16.0.0, SVG Export Plug-In . SVG Version: 6.00 Build 0)  -->
<!DOCTYPE svg PUBLIC "-//W3C//DTD SVG 1.1//EN" "http://www.w3.org/Graphics/SVG/1.1/DTD/svg11.dtd">
<svg version="1.1" id="图层_1" xmlns="http://www.w3.org/2000/svg" xmlns:xlink="http://www.w3.org/1999/xlink" x="0px" y="0px"
	 width="30px" height="12.496px" viewBox="0 0 30 12.496" enable-background="new 0 0 30 12.496" xml:space="preserve">
<path fill="#6F8EA0" d="M24.772,9.543c0,0.791-1.113,1.432-2.488,1.432H8.195c-1.374,0-2.487-0.641-2.487-1.432V1.432
	C5.708,0.641,6.821,0,8.195,0h14.089c1.375,0,2.488,0.641,2.488,1.432V9.543z"/>
<path fill="#6F8EA0" d="M7.532,10.921c0,0,0.406,1.003-0.188,1.19c0,0,0.844,0.094,1.594-0.969l0.375-1.594
	C9.313,9.549,7.725,10.957,7.532,10.921z"/>
<circle fill="#FFFFFF" cx="10.109" cy="5.081" r="0.922"/>
<circle fill="#FFFFFF" cx="13.734" cy="5.081" r="0.922"/>
<circle fill="#FFFFFF" cx="16.672" cy="5.081" r="0.922"/>
<circle fill="#FFFFFF" cx="19.891" cy="5.081" r="0.922"/>
</svg>
